<?xml version="1.0" encoding="UTF-8"?>
<svg id="Layer_1" xmlns="http://www.w3.org/2000/svg" version="1.1" viewBox="0 0 445.2 46.1">
  <!-- Generator: Adobe Illustrator 30.1.0, SVG Export Plug-In . SVG Version: 2.1.1 Build 136)  -->
  <defs>
    <style>
      .st0 {
        fill: #ef2601;
      }

      .st1 {
        fill: #f2f2f2;
      }
    </style>
  </defs>
  <g>
    <g>
      <path class="st0" d="M191,38.2c-1.4,1.8-3.4,3.2-5.9,4.2-2.5.9-5.4,1.4-8.5,1.4s-6.2-.7-8.7-2.2-4.5-3.6-5.8-6.4c-1.4-2.8-2.1-6-2.1-9.7v-3.1c0-5.9,1.4-10.5,4.2-13.8,2.8-3.3,6.8-5,11.8-5s7.8,1.1,10.4,3.2c2.6,2.2,4.1,5.3,4.6,9.3h-6.7c-.8-4.7-3.5-7.1-8.2-7.1s-5.4,1.1-6.9,3.3c-1.6,2.2-2.4,5.4-2.5,9.6v3c0,4.2.9,7.5,2.7,9.8,1.8,2.3,4.3,3.5,7.4,3.5s5.9-.8,7.4-2.4v-7.7h-8.1v-5.2h14.8v15Z"/>
      <path class="st0" d="M219.5,26.8h-15.7v16.6h-6.8V4.2h24.8v5.5h-18v11.6h15.7v5.4Z"/>
      <path class="st0" d="M240.1,18.3l8.2-14.1h7.8l-11.8,19.4,12.1,19.7h-7.9l-8.4-14.3-8.4,14.3h-7.9l12.1-19.7-11.8-19.4h7.8l8.2,14.1Z"/>
    </g>
    <g>
      <path class="st0" d="M33.2,38.2c-1.4,1.8-3.4,3.2-5.9,4.2-2.5.9-5.4,1.4-8.5,1.4s-6.2-.7-8.7-2.2-4.5-3.6-5.8-6.4c-1.4-2.8-2.1-6-2.1-9.7v-3.1c0-5.9,1.4-10.5,4.2-13.8,2.8-3.3,6.8-5,11.8-5s7.8,1.1,10.4,3.2c2.6,2.2,4.1,5.3,4.6,9.3h-6.7c-.8-4.7-3.5-7.1-8.2-7.1s-5.4,1.1-6.9,3.3c-1.6,2.2-2.4,5.4-2.5,9.6v3c0,4.2.9,7.5,2.7,9.8,1.8,2.3,4.3,3.5,7.4,3.5s5.9-.8,7.4-2.4v-7.7h-8.1v-5.2h14.8v15Z"/>
      <path class="st0" d="M46.4,43.3h-6.5V2.1h6.5v41.2Z"/>
      <path class="st0" d="M51.7,28.5c0-2.8.6-5.4,1.7-7.7,1.1-2.3,2.7-4,4.8-5.3,2-1.2,4.4-1.8,7-1.8,3.9,0,7.1,1.3,9.5,3.8,2.4,2.5,3.8,5.9,4,10v1.5c0,2.9-.5,5.4-1.6,7.7-1.1,2.3-2.7,4-4.7,5.2-2,1.2-4.4,1.9-7.1,1.9-4.1,0-7.4-1.4-9.8-4.1-2.5-2.7-3.7-6.4-3.7-10.9v-.3ZM58.3,29.1c0,3,.6,5.3,1.9,7,1.2,1.7,3,2.5,5.2,2.5s3.9-.9,5.1-2.6c1.2-1.7,1.8-4.2,1.8-7.5s-.6-5.3-1.9-7c-1.3-1.7-3-2.6-5.1-2.6s-3.8.8-5.1,2.5c-1.3,1.7-1.9,4.2-1.9,7.6Z"/>
      <path class="st0" d="M109.2,29.1c0,4.5-1,8.1-3,10.8-2,2.7-4.8,4-8.3,4s-6.1-1.2-7.9-3.7l-.3,3.1h-5.9V2.1h6.5v15c1.9-2.2,4.4-3.3,7.6-3.3s6.3,1.3,8.4,3.9c2,2.6,3,6.3,3,11v.4ZM102.7,28.5c0-3.2-.6-5.5-1.7-7.1-1.1-1.6-2.7-2.4-4.8-2.4s-4.8,1.2-6,3.7v12c1.2,2.5,3.2,3.8,6,3.8s3.6-.8,4.7-2.3c1.1-1.5,1.7-3.8,1.7-6.9v-.8Z"/>
      <path class="st0" d="M131.5,43.3c-.3-.6-.5-1.5-.8-2.7-2.1,2.2-4.6,3.2-7.6,3.2s-5.3-.8-7.1-2.5c-1.8-1.7-2.8-3.7-2.8-6.2s1.2-5.5,3.5-7.1c2.3-1.7,5.6-2.5,9.9-2.5h4v-1.9c0-1.5-.4-2.7-1.3-3.6-.8-.9-2.1-1.4-3.8-1.4s-2.7.4-3.7,1.1c-.9.7-1.4,1.7-1.4,2.8h-6.5c0-1.6.5-3.1,1.6-4.5,1.1-1.4,2.5-2.5,4.3-3.3,1.8-.8,3.8-1.2,6.1-1.2,3.4,0,6.1.9,8.1,2.6,2,1.7,3.1,4.1,3.1,7.2v13.1c0,2.6.4,4.7,1.1,6.3v.5h-6.7ZM124.3,38.6c1.3,0,2.5-.3,3.6-.9,1.1-.6,2-1.5,2.6-2.5v-5.5h-3.5c-2.4,0-4.2.4-5.5,1.3-1.2.8-1.8,2-1.8,3.6s.4,2.3,1.2,3c.8.7,1.9,1.1,3.3,1.1Z"/>
      <path class="st0" d="M150.3,43.3h-6.5V2.1h6.5v41.2Z"/>
    </g>
  </g>
  <rect class="st1" x="283.6" y="4.2" width="2.2" height="39.1"/>
  <g>
    <path class="st1" d="M312.8,43.2V4h12.1c3.4,0,6.5.8,9.2,2.3,2.7,1.6,4.8,3.8,6.4,6.6,1.5,2.9,2.3,6.1,2.3,9.8v1.8c0,3.6-.7,6.9-2.2,9.7s-3.6,5-6.3,6.6c-2.7,1.6-5.8,2.4-9.2,2.4h-12.1ZM320.9,10.6v26.2h3.9c3.2,0,5.6-1,7.2-3.1,1.7-2.1,2.5-5,2.6-8.9v-2.1c0-4-.8-7-2.5-9.1s-4.1-3.1-7.2-3.1h-4Z"/>
    <path class="st1" d="M346.9,6.6c0-1.2.4-2.1,1.2-2.9.8-.8,1.8-1.1,3.2-1.1s2.4.4,3.2,1.1c.8.8,1.2,1.7,1.2,2.9s-.4,2.2-1.2,2.9c-.8.8-1.9,1.1-3.2,1.1s-2.4-.4-3.2-1.1c-.8-.8-1.2-1.7-1.2-2.9ZM355.2,43.2h-7.8V14.1h7.8v29.1Z"/>
    <path class="st1" d="M376.3,35.2c0-1-.5-1.7-1.4-2.2-.9-.5-2.5-1-4.5-1.5-6.9-1.5-10.4-4.4-10.4-8.8s1.1-4.7,3.2-6.5c2.1-1.7,4.9-2.6,8.4-2.6s6.6.9,8.9,2.6,3.3,4,3.3,6.8h-7.8c0-1.1-.4-2-1.1-2.8s-1.8-1.1-3.4-1.1-2.3.3-3,.9c-.7.6-1.1,1.3-1.1,2.3s.4,1.6,1.2,2.1c.8.5,2.2,1,4.1,1.4,1.9.4,3.6.8,4.9,1.3,4.1,1.5,6.2,4.1,6.2,7.8s-1.1,4.8-3.4,6.4c-2.3,1.6-5.2,2.5-8.8,2.5s-4.6-.4-6.5-1.3c-1.9-.9-3.4-2.1-4.5-3.6-1.1-1.5-1.6-3.2-1.6-4.9h7.4c0,1.4.6,2.4,1.5,3.2,1,.7,2.2,1.1,3.8,1.1s2.6-.3,3.4-.8c.8-.6,1.1-1.3,1.1-2.2Z"/>
    <path class="st1" d="M397,6.9v7.2h5v5.7h-5v14.5c0,1.1.2,1.8.6,2.3.4.5,1.2.7,2.4.7s1.6,0,2.3-.2v5.9c-1.5.5-3.1.7-4.7.7-5.5,0-8.2-2.8-8.3-8.3v-15.7h-4.3v-5.7h4.3v-7.2h7.8Z"/>
    <path class="st1" d="M405.2,6.6c0-1.2.4-2.1,1.2-2.9.8-.8,1.8-1.1,3.2-1.1s2.4.4,3.2,1.1c.8.8,1.2,1.7,1.2,2.9s-.4,2.2-1.2,2.9c-.8.8-1.9,1.1-3.2,1.1s-2.4-.4-3.2-1.1c-.8-.8-1.2-1.7-1.2-2.9ZM413.4,43.2h-7.8V14.1h7.8v29.1Z"/>
    <path class="st1" d="M426.9,43.2h-7.8V1.9h7.8v41.3Z"/>
    <path class="st1" d="M440.5,43.2h-7.8V1.9h7.8v41.3Z"/>
  </g>
</svg>